# xmcd CD database file
#
# Track frame offsets:
#	150
#	9565
#	25077
#	41877
#	56682
#	75335
#	95843
#	116206
#	133672
#	153355
#
# Disc length: 2176 seconds
#
# Revision: 0
# Processed by: cddbd v1.5.1PL2 Copyright (c) Steve Scherf et al.
# Submitted via: CDex 1.50beta10
#
DISCID=7e087e0a
DTITLE=Bo Bedingfield and the Wydelles - The World is Ending, Show Some Decorum
DYEAR=2006
DGENRE=Country
TTITLE0=You should never go to Paris
TTITLE1=Old Demons
TTITLE2=Pirates fighting in slow motion
TTITLE3=Tight like acrobats
TTITLE4=Michigan
TTITLE5=Harmonica like Dylan
TTITLE6=The hero
TTITLE7=New Year's
TTITLE8=Marilyn
TTITLE9=(Untitled)
EXTD=YEAR: 2006
EXTT0=
EXTT1=
EXTT2=
EXTT3=
EXTT4=
EXTT5=
EXTT6=
EXTT7=
EXTT8=
EXTT9=
PLAYORDER=
